<?xml version="1.0" encoding="UTF-8" ?>
<svg version="1.1" width="96" height="96" xmlns="http://www.w3.org/2000/svg">
<rect x="24" y="6" width="3" height="3" fill="#3C3A41" />
<rect x="27" y="6" width="3" height="3" fill="#3C3A41" />
<rect x="30" y="6" width="3" height="3" fill="#3C3A41" />
<rect x="33" y="6" width="3" height="3" fill="#3C3A41" />
<rect x="36" y="6" width="3" height="3" fill="#3C3A41" />
<rect x="60" y="6" width="3" height="3" fill="#333137" />
<rect x="63" y="6" width="3" height="3" fill="#333137" />
<rect x="66" y="6" width="3" height="3" fill="#333137" />
<rect x="69" y="6" width="3" height="3" fill="#333137" />
<rect x="21" y="9" width="3" height="3" fill="#3C3A41" />
<rect x="24" y="9" width="3" height="3" fill="#B0F8D2" />
<rect x="27" y="9" width="3" height="3" fill="#B0F8D2" />
<rect x="30" y="9" width="3" height="3" fill="#B0F8D2" />
<rect x="33" y="9" width="3" height="3" fill="#81EECA" />
<rect x="36" y="9" width="3" height="3" fill="#81EECA" />
<rect x="39" y="9" width="3" height="3" fill="#333137" />
<rect x="42" y="9" width="3" height="3" fill="#333137" />
<rect x="54" y="9" width="3" height="3" fill="#333137" />
<rect x="57" y="9" width="3" height="3" fill="#333137" />
<rect x="60" y="9" width="3" height="3" fill="#81EECA" />
<rect x="63" y="9" width="3" height="3" fill="#81EECA" />
<rect x="66" y="9" width="3" height="3" fill="#81EECA" />
<rect x="69" y="9" width="3" height="3" fill="#81EECA" />
<rect x="72" y="9" width="3" height="3" fill="#2A292E" />
<rect x="75" y="9" width="3" height="3" fill="#2A292E" />
<rect x="18" y="12" width="3" height="3" fill="#3C3A41" />
<rect x="21" y="12" width="3" height="3" fill="#B0F8D2" />
<rect x="24" y="12" width="3" height="3" fill="#81EECA" />
<rect x="27" y="12" width="3" height="3" fill="#29E1C0" />
<rect x="30" y="12" width="3" height="3" fill="#29E1C0" />
<rect x="33" y="12" width="3" height="3" fill="#29E1C0" />
<rect x="36" y="12" width="3" height="3" fill="#29E1C0" />
<rect x="39" y="12" width="3" height="3" fill="#29E1C0" />
<rect x="42" y="12" width="3" height="3" fill="#29E1C0" />
<rect x="45" y="12" width="3" height="3" fill="#333137" />
<rect x="51" y="12" width="3" height="3" fill="#333137" />
<rect x="54" y="12" width="3" height="3" fill="#B0F8D2" />
<rect x="57" y="12" width="3" height="3" fill="#B0F8D2" />
<rect x="60" y="12" width="3" height="3" fill="#26D2B3" />
<rect x="63" y="12" width="3" height="3" fill="#26D2B3" />
<rect x="66" y="12" width="3" height="3" fill="#26D2B3" />
<rect x="69" y="12" width="3" height="3" fill="#26D2B3" />
<rect x="72" y="12" width="3" height="3" fill="#81EECA" />
<rect x="75" y="12" width="3" height="3" fill="#81EECA" />
<rect x="78" y="12" width="3" height="3" fill="#2A292E" />
<rect x="15" y="15" width="3" height="3" fill="#333137" />
<rect x="18" y="15" width="3" height="3" fill="#B0F8D2" />
<rect x="21" y="15" width="3" height="3" fill="#29E1C0" />
<rect x="24" y="15" width="3" height="3" fill="#29E1C0" />
<rect x="27" y="15" width="3" height="3" fill="#333137" />
<rect x="30" y="15" width="3" height="3" fill="#333137" />
<rect x="33" y="15" width="3" height="3" fill="#333137" />
<rect x="36" y="15" width="3" height="3" fill="#26D2B3" />
<rect x="39" y="15" width="3" height="3" fill="#26D2B3" />
<rect x="42" y="15" width="3" height="3" fill="#26D2B3" />
<rect x="45" y="15" width="3" height="3" fill="#29E1C0" />
<rect x="48" y="15" width="3" height="3" fill="#333137" />
<rect x="51" y="15" width="3" height="3" fill="#B0F8D2" />
<rect x="54" y="15" width="3" height="3" fill="#26D2B3" />
<rect x="57" y="15" width="3" height="3" fill="#26D2B3" />
<rect x="60" y="15" width="3" height="3" fill="#26D2B3" />
<rect x="63" y="15" width="3" height="3" fill="#333137" />
<rect x="66" y="15" width="3" height="3" fill="#333137" />
<rect x="69" y="15" width="3" height="3" fill="#333137" />
<rect x="72" y="15" width="3" height="3" fill="#26D2B3" />
<rect x="75" y="15" width="3" height="3" fill="#81EECA" />
<rect x="78" y="15" width="3" height="3" fill="#81EECA" />
<rect x="81" y="15" width="3" height="3" fill="#2A292E" />
<rect x="15" y="18" width="3" height="3" fill="#333137" />
<rect x="18" y="18" width="3" height="3" fill="#81EECA" />
<rect x="21" y="18" width="3" height="3" fill="#29E1C0" />
<rect x="24" y="18" width="3" height="3" fill="#333137" />
<rect x="36" y="18" width="3" height="3" fill="#333137" />
<rect x="39" y="18" width="3" height="3" fill="#333137" />
<rect x="42" y="18" width="3" height="3" fill="#26D2B3" />
<rect x="45" y="18" width="3" height="3" fill="#26D2B3" />
<rect x="48" y="18" width="3" height="3" fill="#B0F8D2" />
<rect x="51" y="18" width="3" height="3" fill="#26D2B3" />
<rect x="54" y="18" width="3" height="3" fill="#26D2B3" />
<rect x="57" y="18" width="3" height="3" fill="#333137" />
<rect x="60" y="18" width="3" height="3" fill="#333137" />
<rect x="72" y="18" width="3" height="3" fill="#333137" />
<rect x="75" y="18" width="3" height="3" fill="#26D2B3" />
<rect x="78" y="18" width="3" height="3" fill="#81EECA" />
<rect x="81" y="18" width="3" height="3" fill="#2A292E" />
<rect x="15" y="21" width="3" height="3" fill="#333137" />
<rect x="18" y="21" width="3" height="3" fill="#81EECA" />
<rect x="21" y="21" width="3" height="3" fill="#29E1C0" />
<rect x="24" y="21" width="3" height="3" fill="#333137" />
<rect x="39" y="21" width="3" height="3" fill="#333137" />
<rect x="42" y="21" width="3" height="3" fill="#81EECA" />
<rect x="45" y="21" width="3" height="3" fill="#81EECA" />
<rect x="48" y="21" width="3" height="3" fill="#26D2B3" />
<rect x="51" y="21" width="3" height="3" fill="#23C0A4" />
<rect x="54" y="21" width="3" height="3" fill="#333137" />
<rect x="72" y="21" width="3" height="3" fill="#333137" />
<rect x="75" y="21" width="3" height="3" fill="#26D2B3" />
<rect x="78" y="21" width="3" height="3" fill="#26D2B3" />
<rect x="81" y="21" width="3" height="3" fill="#2A292E" />
<rect x="15" y="24" width="3" height="3" fill="#333137" />
<rect x="18" y="24" width="3" height="3" fill="#81EECA" />
<rect x="21" y="24" width="3" height="3" fill="#333137" />
<rect x="36" y="24" width="3" height="3" fill="#333137" />
<rect x="39" y="24" width="3" height="3" fill="#81EECA" />
<rect x="42" y="24" width="3" height="3" fill="#26D2B3" />
<rect x="45" y="24" width="3" height="3" fill="#26D2B3" />
<rect x="48" y="24" width="3" height="3" fill="#26D2B3" />
<rect x="51" y="24" width="3" height="3" fill="#26D2B3" />
<rect x="54" y="24" width="3" height="3" fill="#23C0A4" />
<rect x="57" y="24" width="3" height="3" fill="#333137" />
<rect x="72" y="24" width="3" height="3" fill="#333137" />
<rect x="75" y="24" width="3" height="3" fill="#26D2B3" />
<rect x="78" y="24" width="3" height="3" fill="#2A292E" />
<rect x="15" y="27" width="3" height="3" fill="#333137" />
<rect x="18" y="27" width="3" height="3" fill="#81EECA" />
<rect x="21" y="27" width="3" height="3" fill="#26D2B3" />
<rect x="24" y="27" width="3" height="3" fill="#333137" />
<rect x="27" y="27" width="3" height="3" fill="#333137" />
<rect x="30" y="27" width="3" height="3" fill="#333137" />
<rect x="33" y="27" width="3" height="3" fill="#333137" />
<rect x="36" y="27" width="3" height="3" fill="#81EECA" />
<rect x="39" y="27" width="3" height="3" fill="#26D2B3" />
<rect x="42" y="27" width="3" height="3" fill="#333137" />
<rect x="45" y="27" width="3" height="3" fill="#333137" />
<rect x="48" y="27" width="3" height="3" fill="#333137" />
<rect x="51" y="27" width="3" height="3" fill="#333137" />
<rect x="54" y="27" width="3" height="3" fill="#23C0A4" />
<rect x="57" y="27" width="3" height="3" fill="#23C0A4" />
<rect x="60" y="27" width="3" height="3" fill="#333137" />
<rect x="63" y="27" width="3" height="3" fill="#333137" />
<rect x="66" y="27" width="3" height="3" fill="#333137" />
<rect x="69" y="27" width="3" height="3" fill="#333137" />
<rect x="72" y="27" width="3" height="3" fill="#23C0A4" />
<rect x="75" y="27" width="3" height="3" fill="#2A292E" />
<rect x="18" y="30" width="3" height="3" fill="#333137" />
<rect x="21" y="30" width="3" height="3" fill="#26D2B3" />
<rect x="24" y="30" width="3" height="3" fill="#20AF95" />
<rect x="27" y="30" width="3" height="3" fill="#81EECA" />
<rect x="30" y="30" width="3" height="3" fill="#81EECA" />
<rect x="33" y="30" width="3" height="3" fill="#81EECA" />
<rect x="36" y="30" width="3" height="3" fill="#26D2B3" />
<rect x="39" y="30" width="3" height="3" fill="#81EECA" />
<rect x="42" y="30" width="3" height="3" fill="#81EECA" />
<rect x="45" y="30" width="3" height="3" fill="#81EECA" />
<rect x="48" y="30" width="3" height="3" fill="#81EECA" />
<rect x="51" y="30" width="3" height="3" fill="#81EECA" />
<rect x="54" y="30" width="3" height="3" fill="#81EECA" />
<rect x="57" y="30" width="3" height="3" fill="#23C0A4" />
<rect x="60" y="30" width="3" height="3" fill="#23C0A4" />
<rect x="63" y="30" width="3" height="3" fill="#81EECA" />
<rect x="66" y="30" width="3" height="3" fill="#81EECA" />
<rect x="69" y="30" width="3" height="3" fill="#333137" />
<rect x="72" y="30" width="3" height="3" fill="#1C9B84" />
<rect x="75" y="30" width="3" height="3" fill="#2A292E" />
<rect x="15" y="33" width="3" height="3" fill="#333137" />
<rect x="18" y="33" width="3" height="3" fill="#B0F8D2" />
<rect x="21" y="33" width="3" height="3" fill="#26D2B3" />
<rect x="24" y="33" width="3" height="3" fill="#20AF95" />
<rect x="27" y="33" width="3" height="3" fill="#1C9B84" />
<rect x="30" y="33" width="3" height="3" fill="#1C9B84" />
<rect x="33" y="33" width="3" height="3" fill="#81EECA" />
<rect x="36" y="33" width="3" height="3" fill="#1C9B84" />
<rect x="39" y="33" width="3" height="3" fill="#26D2B3" />
<rect x="42" y="33" width="3" height="3" fill="#333137" />
<rect x="45" y="33" width="3" height="3" fill="#333137" />
<rect x="48" y="33" width="3" height="3" fill="#333137" />
<rect x="51" y="33" width="3" height="3" fill="#26D2B3" />
<rect x="54" y="33" width="3" height="3" fill="#26D2B3" />
<rect x="57" y="33" width="3" height="3" fill="#81EECA" />
<rect x="60" y="33" width="3" height="3" fill="#23C0A4" />
<rect x="63" y="33" width="3" height="3" fill="#26D2B3" />
<rect x="66" y="33" width="3" height="3" fill="#23C0A4" />
<rect x="69" y="33" width="3" height="3" fill="#81EECA" />
<rect x="72" y="33" width="3" height="3" fill="#1C9B84" />
<rect x="75" y="33" width="3" height="3" fill="#26D2B3" />
<rect x="78" y="33" width="3" height="3" fill="#2A292E" />
<rect x="81" y="33" width="3" height="3" fill="#2A292E" />
<rect x="12" y="36" width="3" height="3" fill="#3C3A41" />
<rect x="15" y="36" width="3" height="3" fill="#B0F8D2" />
<rect x="18" y="36" width="3" height="3" fill="#26D2B3" />
<rect x="21" y="36" width="3" height="3" fill="#333137" />
<rect x="24" y="36" width="3" height="3" fill="#26D2B3" />
<rect x="27" y="36" width="3" height="3" fill="#20AF95" />
<rect x="30" y="36" width="3" height="3" fill="#81EECA" />
<rect x="33" y="36" width="3" height="3" fill="#26D2B3" />
<rect x="36" y="36" width="3" height="3" fill="#3C3A41" />
<rect x="39" y="36" width="3" height="3" fill="#3C3A41" />
<rect x="51" y="36" width="3" height="3" fill="#333137" />
<rect x="54" y="36" width="3" height="3" fill="#333137" />
<rect x="57" y="36" width="3" height="3" fill="#26D2B3" />
<rect x="60" y="36" width="3" height="3" fill="#23C0A4" />
<rect x="63" y="36" width="3" height="3" fill="#23C0A4" />
<rect x="66" y="36" width="3" height="3" fill="#333137" />
<rect x="69" y="36" width="3" height="3" fill="#26D2B3" />
<rect x="72" y="36" width="3" height="3" fill="#23C0A4" />
<rect x="75" y="36" width="3" height="3" fill="#1C9B84" />
<rect x="78" y="36" width="3" height="3" fill="#26D2B3" />
<rect x="81" y="36" width="3" height="3" fill="#26D2B3" />
<rect x="84" y="36" width="3" height="3" fill="#2A292E" />
<rect x="9" y="39" width="3" height="3" fill="#3C3A41" />
<rect x="12" y="39" width="3" height="3" fill="#B0F8D2" />
<rect x="15" y="39" width="3" height="3" fill="#26D2B3" />
<rect x="18" y="39" width="3" height="3" fill="#333137" />
<rect x="21" y="39" width="3" height="3" fill="#333137" />
<rect x="24" y="39" width="3" height="3" fill="#26D2B3" />
<rect x="27" y="39" width="3" height="3" fill="#81EECA" />
<rect x="30" y="39" width="3" height="3" fill="#20AF95" />
<rect x="33" y="39" width="3" height="3" fill="#3C3A41" />
<rect x="45" y="39" width="3" height="3" fill="#333137" />
<rect x="48" y="39" width="3" height="3" fill="#333137" />
<rect x="57" y="39" width="3" height="3" fill="#333137" />
<rect x="60" y="39" width="3" height="3" fill="#333137" />
<rect x="63" y="39" width="3" height="3" fill="#23C0A4" />
<rect x="66" y="39" width="3" height="3" fill="#23C0A4" />
<rect x="69" y="39" width="3" height="3" fill="#26D2B3" />
<rect x="72" y="39" width="3" height="3" fill="#333137" />
<rect x="75" y="39" width="3" height="3" fill="#2A292E" />
<rect x="78" y="39" width="3" height="3" fill="#23C0A4" />
<rect x="81" y="39" width="3" height="3" fill="#23C0A4" />
<rect x="84" y="39" width="3" height="3" fill="#26D2B3" />
<rect x="87" y="39" width="3" height="3" fill="#2A292E" />
<rect x="6" y="42" width="3" height="3" fill="#3C3A41" />
<rect x="9" y="42" width="3" height="3" fill="#B0F8D2" />
<rect x="12" y="42" width="3" height="3" fill="#26D2B3" />
<rect x="15" y="42" width="3" height="3" fill="#333137" />
<rect x="24" y="42" width="3" height="3" fill="#333137" />
<rect x="27" y="42" width="3" height="3" fill="#81EECA" />
<rect x="30" y="42" width="3" height="3" fill="#20AF95" />
<rect x="33" y="42" width="3" height="3" fill="#3C3A41" />
<rect x="42" y="42" width="3" height="3" fill="#3C3A41" />
<rect x="45" y="42" width="3" height="3" fill="#81EECA" />
<rect x="48" y="42" width="3" height="3" fill="#29E1C0" />
<rect x="51" y="42" width="3" height="3" fill="#333137" />
<rect x="63" y="42" width="3" height="3" fill="#333137" />
<rect x="66" y="42" width="3" height="3" fill="#23C0A4" />
<rect x="69" y="42" width="3" height="3" fill="#333137" />
<rect x="78" y="42" width="3" height="3" fill="#2A292E" />
<rect x="81" y="42" width="3" height="3" fill="#2A292E" />
<rect x="84" y="42" width="3" height="3" fill="#23C0A4" />
<rect x="87" y="42" width="3" height="3" fill="#1EA48C" />
<rect x="90" y="42" width="3" height="3" fill="#2A292E" />
<rect x="6" y="45" width="3" height="3" fill="#3C3A41" />
<rect x="9" y="45" width="3" height="3" fill="#B0F8D2" />
<rect x="12" y="45" width="3" height="3" fill="#26D2B3" />
<rect x="15" y="45" width="3" height="3" fill="#333137" />
<rect x="21" y="45" width="3" height="3" fill="#333137" />
<rect x="24" y="45" width="3" height="3" fill="#81EECA" />
<rect x="27" y="45" width="3" height="3" fill="#20AF95" />
<rect x="30" y="45" width="3" height="3" fill="#1C9B84" />
<rect x="33" y="45" width="3" height="3" fill="#3C3A41" />
<rect x="39" y="45" width="3" height="3" fill="#3C3A41" />
<rect x="42" y="45" width="3" height="3" fill="#81EECA" />
<rect x="45" y="45" width="3" height="3" fill="#26D2B3" />
<rect x="48" y="45" width="3" height="3" fill="#26D2B3" />
<rect x="51" y="45" width="3" height="3" fill="#26D2B3" />
<rect x="54" y="45" width="3" height="3" fill="#2A292E" />
<rect x="63" y="45" width="3" height="3" fill="#333137" />
<rect x="66" y="45" width="3" height="3" fill="#23C0A4" />
<rect x="69" y="45" width="3" height="3" fill="#23C0A4" />
<rect x="72" y="45" width="3" height="3" fill="#333137" />
<rect x="81" y="45" width="3" height="3" fill="#2A292E" />
<rect x="84" y="45" width="3" height="3" fill="#23C0A4" />
<rect x="87" y="45" width="3" height="3" fill="#1EA48C" />
<rect x="90" y="45" width="3" height="3" fill="#2A292E" />
<rect x="6" y="48" width="3" height="3" fill="#3C3A41" />
<rect x="9" y="48" width="3" height="3" fill="#B0F8D2" />
<rect x="12" y="48" width="3" height="3" fill="#26D2B3" />
<rect x="15" y="48" width="3" height="3" fill="#333137" />
<rect x="21" y="48" width="3" height="3" fill="#333137" />
<rect x="24" y="48" width="3" height="3" fill="#81EECA" />
<rect x="27" y="48" width="3" height="3" fill="#20AF95" />
<rect x="30" y="48" width="3" height="3" fill="#26D2B3" />
<rect x="33" y="48" width="3" height="3" fill="#3C3A41" />
<rect x="39" y="48" width="3" height="3" fill="#333137" />
<rect x="42" y="48" width="3" height="3" fill="#29E1C0" />
<rect x="45" y="48" width="3" height="3" fill="#26D2B3" />
<rect x="48" y="48" width="3" height="3" fill="#26D2B3" />
<rect x="51" y="48" width="3" height="3" fill="#20AF95" />
<rect x="54" y="48" width="3" height="3" fill="#2A292E" />
<rect x="63" y="48" width="3" height="3" fill="#2A292E" />
<rect x="66" y="48" width="3" height="3" fill="#26D2B3" />
<rect x="69" y="48" width="3" height="3" fill="#23C0A4" />
<rect x="72" y="48" width="3" height="3" fill="#333137" />
<rect x="81" y="48" width="3" height="3" fill="#2A292E" />
<rect x="84" y="48" width="3" height="3" fill="#23C0A4" />
<rect x="87" y="48" width="3" height="3" fill="#1EA48C" />
<rect x="90" y="48" width="3" height="3" fill="#2A292E" />
<rect x="6" y="51" width="3" height="3" fill="#3C3A41" />
<rect x="9" y="51" width="3" height="3" fill="#B0F8D2" />
<rect x="12" y="51" width="3" height="3" fill="#26D2B3" />
<rect x="15" y="51" width="3" height="3" fill="#333137" />
<rect x="18" y="51" width="3" height="3" fill="#333137" />
<rect x="21" y="51" width="3" height="3" fill="#81EECA" />
<rect x="24" y="51" width="3" height="3" fill="#20AF95" />
<rect x="27" y="51" width="3" height="3" fill="#20AE95" />
<rect x="30" y="51" width="3" height="3" fill="#26D2B3" />
<rect x="33" y="51" width="3" height="3" fill="#3C3A41" />
<rect x="42" y="51" width="3" height="3" fill="#333137" />
<rect x="45" y="51" width="3" height="3" fill="#26D2B3" />
<rect x="48" y="51" width="3" height="3" fill="#20AF95" />
<rect x="51" y="51" width="3" height="3" fill="#2A292E" />
<rect x="60" y="51" width="3" height="3" fill="#2A292E" />
<rect x="63" y="51" width="3" height="3" fill="#26D2B3" />
<rect x="66" y="51" width="3" height="3" fill="#20AE95" />
<rect x="69" y="51" width="3" height="3" fill="#26D2B3" />
<rect x="72" y="51" width="3" height="3" fill="#23C0A4" />
<rect x="75" y="51" width="3" height="3" fill="#333137" />
<rect x="81" y="51" width="3" height="3" fill="#2A292E" />
<rect x="84" y="51" width="3" height="3" fill="#23C0A4" />
<rect x="87" y="51" width="3" height="3" fill="#1EA48C" />
<rect x="90" y="51" width="3" height="3" fill="#2A292E" />
<rect x="9" y="54" width="3" height="3" fill="#3C3A41" />
<rect x="12" y="54" width="3" height="3" fill="#B0F8D2" />
<rect x="15" y="54" width="3" height="3" fill="#B0F8D2" />
<rect x="18" y="54" width="3" height="3" fill="#29E1C0" />
<rect x="21" y="54" width="3" height="3" fill="#81EECA" />
<rect x="24" y="54" width="3" height="3" fill="#20AF95" />
<rect x="27" y="54" width="3" height="3" fill="#333137" />
<rect x="30" y="54" width="3" height="3" fill="#2A292E" />
<rect x="33" y="54" width="3" height="3" fill="#26D2B3" />
<rect x="36" y="54" width="3" height="3" fill="#3C3A41" />
<rect x="45" y="54" width="3" height="3" fill="#333137" />
<rect x="48" y="54" width="3" height="3" fill="#2A292E" />
<rect x="57" y="54" width="3" height="3" fill="#2A292E" />
<rect x="60" y="54" width="3" height="3" fill="#26D2B3" />
<rect x="63" y="54" width="3" height="3" fill="#20AE95" />
<rect x="66" y="54" width="3" height="3" fill="#333137" />
<rect x="69" y="54" width="3" height="3" fill="#26D2B3" />
<rect x="72" y="54" width="3" height="3" fill="#23C0A4" />
<rect x="75" y="54" width="3" height="3" fill="#2A292E" />
<rect x="78" y="54" width="3" height="3" fill="#2A292E" />
<rect x="81" y="54" width="3" height="3" fill="#23C0A4" />
<rect x="84" y="54" width="3" height="3" fill="#1EA48C" />
<rect x="87" y="54" width="3" height="3" fill="#2A292E" />
<rect x="12" y="57" width="3" height="3" fill="#3C3A41" />
<rect x="15" y="57" width="3" height="3" fill="#81EECA" />
<rect x="18" y="57" width="3" height="3" fill="#B0F8D2" />
<rect x="21" y="57" width="3" height="3" fill="#B0F8D2" />
<rect x="24" y="57" width="3" height="3" fill="#20AF95" />
<rect x="27" y="57" width="3" height="3" fill="#333137" />
<rect x="30" y="57" width="3" height="3" fill="#2A292E" />
<rect x="33" y="57" width="3" height="3" fill="#26D2B3" />
<rect x="36" y="57" width="3" height="3" fill="#20AF95" />
<rect x="39" y="57" width="3" height="3" fill="#333137" />
<rect x="54" y="57" width="3" height="3" fill="#2A292E" />
<rect x="57" y="57" width="3" height="3" fill="#26D2B3" />
<rect x="60" y="57" width="3" height="3" fill="#20AE95" />
<rect x="63" y="57" width="3" height="3" fill="#333137" />
<rect x="66" y="57" width="3" height="3" fill="#2A292E" />
<rect x="69" y="57" width="3" height="3" fill="#2A292E" />
<rect x="72" y="57" width="3" height="3" fill="#26D2B3" />
<rect x="75" y="57" width="3" height="3" fill="#23C0A4" />
<rect x="78" y="57" width="3" height="3" fill="#81EECA" />
<rect x="81" y="57" width="3" height="3" fill="#1EA48C" />
<rect x="84" y="57" width="3" height="3" fill="#1EA48C" />
<rect x="87" y="57" width="3" height="3" fill="#2A292E" />
<rect x="15" y="60" width="3" height="3" fill="#333137" />
<rect x="18" y="60" width="3" height="3" fill="#81EECA" />
<rect x="21" y="60" width="3" height="3" fill="#81EECA" />
<rect x="24" y="60" width="3" height="3" fill="#B0F8D2" />
<rect x="27" y="60" width="3" height="3" fill="#81EECA" />
<rect x="30" y="60" width="3" height="3" fill="#81EECA" />
<rect x="33" y="60" width="3" height="3" fill="#2A292E" />
<rect x="36" y="60" width="3" height="3" fill="#26D2B3" />
<rect x="39" y="60" width="3" height="3" fill="#20AF95" />
<rect x="42" y="60" width="3" height="3" fill="#333137" />
<rect x="45" y="60" width="3" height="3" fill="#333137" />
<rect x="48" y="60" width="3" height="3" fill="#2A292E" />
<rect x="51" y="60" width="3" height="3" fill="#2A292E" />
<rect x="54" y="60" width="3" height="3" fill="#26D2B3" />
<rect x="57" y="60" width="3" height="3" fill="#26D2B3" />
<rect x="60" y="60" width="3" height="3" fill="#20AE95" />
<rect x="63" y="60" width="3" height="3" fill="#2A292E" />
<rect x="66" y="60" width="3" height="3" fill="#26D2B3" />
<rect x="69" y="60" width="3" height="3" fill="#26D2B3" />
<rect x="72" y="60" width="3" height="3" fill="#81EECA" />
<rect x="75" y="60" width="3" height="3" fill="#81EECA" />
<rect x="78" y="60" width="3" height="3" fill="#2A292E" />
<rect x="81" y="60" width="3" height="3" fill="#2A292E" />
<rect x="84" y="60" width="3" height="3" fill="#2A292E" />
<rect x="15" y="63" width="3" height="3" fill="#333137" />
<rect x="18" y="63" width="3" height="3" fill="#81EECA" />
<rect x="21" y="63" width="3" height="3" fill="#20AF95" />
<rect x="24" y="63" width="3" height="3" fill="#333137" />
<rect x="27" y="63" width="3" height="3" fill="#B0F8D2" />
<rect x="30" y="63" width="3" height="3" fill="#B0F8D2" />
<rect x="33" y="63" width="3" height="3" fill="#B0F8D2" />
<rect x="36" y="63" width="3" height="3" fill="#B0F8D2" />
<rect x="39" y="63" width="3" height="3" fill="#B0F8D2" />
<rect x="42" y="63" width="3" height="3" fill="#B0F8D2" />
<rect x="45" y="63" width="3" height="3" fill="#26D2B3" />
<rect x="48" y="63" width="3" height="3" fill="#26D2B3" />
<rect x="51" y="63" width="3" height="3" fill="#26D2B3" />
<rect x="54" y="63" width="3" height="3" fill="#26D2B3" />
<rect x="57" y="63" width="3" height="3" fill="#26D2B3" />
<rect x="60" y="63" width="3" height="3" fill="#26D2B3" />
<rect x="63" y="63" width="3" height="3" fill="#26D2B3" />
<rect x="66" y="63" width="3" height="3" fill="#81EECA" />
<rect x="69" y="63" width="3" height="3" fill="#81EECA" />
<rect x="72" y="63" width="3" height="3" fill="#20AE95" />
<rect x="75" y="63" width="3" height="3" fill="#1EA48C" />
<rect x="78" y="63" width="3" height="3" fill="#2A292E" />
<rect x="15" y="66" width="3" height="3" fill="#333137" />
<rect x="18" y="66" width="3" height="3" fill="#81EECA" />
<rect x="21" y="66" width="3" height="3" fill="#333137" />
<rect x="27" y="66" width="3" height="3" fill="#3C3A41" />
<rect x="30" y="66" width="3" height="3" fill="#3C3A41" />
<rect x="33" y="66" width="3" height="3" fill="#2A292E" />
<rect x="36" y="66" width="3" height="3" fill="#81EECA" />
<rect x="39" y="66" width="3" height="3" fill="#81EECA" />
<rect x="42" y="66" width="3" height="3" fill="#81EECA" />
<rect x="45" y="66" width="3" height="3" fill="#81EECA" />
<rect x="48" y="66" width="3" height="3" fill="#81EECA" />
<rect x="51" y="66" width="3" height="3" fill="#81EECA" />
<rect x="54" y="66" width="3" height="3" fill="#81EECA" />
<rect x="57" y="66" width="3" height="3" fill="#81EECA" />
<rect x="60" y="66" width="3" height="3" fill="#81EECA" />
<rect x="63" y="66" width="3" height="3" fill="#81EECA" />
<rect x="66" y="66" width="3" height="3" fill="#333137" />
<rect x="69" y="66" width="3" height="3" fill="#333137" />
<rect x="72" y="66" width="3" height="3" fill="#2A292E" />
<rect x="75" y="66" width="3" height="3" fill="#29E1C0" />
<rect x="78" y="66" width="3" height="3" fill="#1EA48C" />
<rect x="81" y="66" width="3" height="3" fill="#2A292E" />
<rect x="15" y="69" width="3" height="3" fill="#333137" />
<rect x="18" y="69" width="3" height="3" fill="#81EECA" />
<rect x="21" y="69" width="3" height="3" fill="#26D2B3" />
<rect x="24" y="69" width="3" height="3" fill="#333137" />
<rect x="36" y="69" width="3" height="3" fill="#2A292E" />
<rect x="39" y="69" width="3" height="3" fill="#2A292E" />
<rect x="42" y="69" width="3" height="3" fill="#2A292E" />
<rect x="45" y="69" width="3" height="3" fill="#26D2B3" />
<rect x="48" y="69" width="3" height="3" fill="#20AE95" />
<rect x="51" y="69" width="3" height="3" fill="#2A292E" />
<rect x="54" y="69" width="3" height="3" fill="#333137" />
<rect x="57" y="69" width="3" height="3" fill="#333137" />
<rect x="60" y="69" width="3" height="3" fill="#333137" />
<rect x="63" y="69" width="3" height="3" fill="#333137" />
<rect x="69" y="69" width="3" height="3" fill="#2A292E" />
<rect x="72" y="69" width="3" height="3" fill="#20AE95" />
<rect x="75" y="69" width="3" height="3" fill="#20AE95" />
<rect x="78" y="69" width="3" height="3" fill="#1EA48C" />
<rect x="81" y="69" width="3" height="3" fill="#2A292E" />
<rect x="15" y="72" width="3" height="3" fill="#333137" />
<rect x="18" y="72" width="3" height="3" fill="#81EECA" />
<rect x="21" y="72" width="3" height="3" fill="#26D2B3" />
<rect x="24" y="72" width="3" height="3" fill="#333137" />
<rect x="36" y="72" width="3" height="3" fill="#333137" />
<rect x="39" y="72" width="3" height="3" fill="#333137" />
<rect x="42" y="72" width="3" height="3" fill="#26D2B3" />
<rect x="45" y="72" width="3" height="3" fill="#26D2B3" />
<rect x="48" y="72" width="3" height="3" fill="#26D2B3" />
<rect x="51" y="72" width="3" height="3" fill="#20AE95" />
<rect x="54" y="72" width="3" height="3" fill="#2A292E" />
<rect x="57" y="72" width="3" height="3" fill="#2A292E" />
<rect x="69" y="72" width="3" height="3" fill="#2A292E" />
<rect x="72" y="72" width="3" height="3" fill="#20AE95" />
<rect x="75" y="72" width="3" height="3" fill="#20AE95" />
<rect x="78" y="72" width="3" height="3" fill="#1A8B77" />
<rect x="81" y="72" width="3" height="3" fill="#2A292E" />
<rect x="18" y="75" width="3" height="3" fill="#333137" />
<rect x="21" y="75" width="3" height="3" fill="#81EECA" />
<rect x="24" y="75" width="3" height="3" fill="#26D2B3" />
<rect x="27" y="75" width="3" height="3" fill="#333137" />
<rect x="30" y="75" width="3" height="3" fill="#333137" />
<rect x="33" y="75" width="3" height="3" fill="#333137" />
<rect x="36" y="75" width="3" height="3" fill="#26D2B3" />
<rect x="39" y="75" width="3" height="3" fill="#26D2B3" />
<rect x="42" y="75" width="3" height="3" fill="#26D2B3" />
<rect x="45" y="75" width="3" height="3" fill="#333137" />
<rect x="48" y="75" width="3" height="3" fill="#333137" />
<rect x="51" y="75" width="3" height="3" fill="#26D2B3" />
<rect x="54" y="75" width="3" height="3" fill="#20AE95" />
<rect x="57" y="75" width="3" height="3" fill="#20AE95" />
<rect x="60" y="75" width="3" height="3" fill="#2A292E" />
<rect x="63" y="75" width="3" height="3" fill="#2A292E" />
<rect x="66" y="75" width="3" height="3" fill="#2A292E" />
<rect x="69" y="75" width="3" height="3" fill="#20AE95" />
<rect x="72" y="75" width="3" height="3" fill="#20AE95" />
<rect x="75" y="75" width="3" height="3" fill="#1A8B77" />
<rect x="78" y="75" width="3" height="3" fill="#2A292E" />
<rect x="21" y="78" width="3" height="3" fill="#333137" />
<rect x="24" y="78" width="3" height="3" fill="#81EECA" />
<rect x="27" y="78" width="3" height="3" fill="#26D2B3" />
<rect x="30" y="78" width="3" height="3" fill="#26D2B3" />
<rect x="33" y="78" width="3" height="3" fill="#26D2B3" />
<rect x="36" y="78" width="3" height="3" fill="#26D2B3" />
<rect x="39" y="78" width="3" height="3" fill="#81EECA" />
<rect x="42" y="78" width="3" height="3" fill="#333137" />
<rect x="51" y="78" width="3" height="3" fill="#333137" />
<rect x="54" y="78" width="3" height="3" fill="#333137" />
<rect x="57" y="78" width="3" height="3" fill="#26D2B3" />
<rect x="60" y="78" width="3" height="3" fill="#26D2B3" />
<rect x="63" y="78" width="3" height="3" fill="#20AE95" />
<rect x="66" y="78" width="3" height="3" fill="#1EA48C" />
<rect x="69" y="78" width="3" height="3" fill="#1A8B77" />
<rect x="72" y="78" width="3" height="3" fill="#1A8B77" />
<rect x="75" y="78" width="3" height="3" fill="#2A292E" />
<rect x="24" y="81" width="3" height="3" fill="#333137" />
<rect x="27" y="81" width="3" height="3" fill="#81EECA" />
<rect x="30" y="81" width="3" height="3" fill="#81EECA" />
<rect x="33" y="81" width="3" height="3" fill="#81EECA" />
<rect x="36" y="81" width="3" height="3" fill="#81EECA" />
<rect x="39" y="81" width="3" height="3" fill="#333137" />
<rect x="57" y="81" width="3" height="3" fill="#333137" />
<rect x="60" y="81" width="3" height="3" fill="#333137" />
<rect x="63" y="81" width="3" height="3" fill="#1A8B77" />
<rect x="66" y="81" width="3" height="3" fill="#1A8B77" />
<rect x="69" y="81" width="3" height="3" fill="#1A8B77" />
<rect x="72" y="81" width="3" height="3" fill="#2A292E" />
<rect x="27" y="84" width="3" height="3" fill="#333137" />
<rect x="30" y="84" width="3" height="3" fill="#333137" />
<rect x="33" y="84" width="3" height="3" fill="#333137" />
<rect x="36" y="84" width="3" height="3" fill="#333137" />
<rect x="63" y="84" width="3" height="3" fill="#333137" />
<rect x="66" y="84" width="3" height="3" fill="#333137" />
<rect x="69" y="84" width="3" height="3" fill="#2A292E" />
</svg>