<?xml version="1.0" encoding="UTF-8" ?>
<svg version="1.1" width="96" height="96" xmlns="http://www.w3.org/2000/svg">
<rect x="42" y="3" width="3" height="3" fill="#3C3A41" />
<rect x="45" y="3" width="3" height="3" fill="#3C3A41" />
<rect x="33" y="6" width="3" height="3" fill="#3C3A41" />
<rect x="36" y="6" width="3" height="3" fill="#3C3A41" />
<rect x="39" y="6" width="3" height="3" fill="#3C3A41" />
<rect x="42" y="6" width="3" height="3" fill="#8C4B93" />
<rect x="45" y="6" width="3" height="3" fill="#8C4B93" />
<rect x="48" y="6" width="3" height="3" fill="#3C3A41" />
<rect x="51" y="6" width="3" height="3" fill="#3C3A41" />
<rect x="30" y="9" width="3" height="3" fill="#3C3A41" />
<rect x="33" y="9" width="3" height="3" fill="#8C4B93" />
<rect x="36" y="9" width="3" height="3" fill="#732B79" />
<rect x="39" y="9" width="3" height="3" fill="#732B79" />
<rect x="42" y="9" width="3" height="3" fill="#5E2662" />
<rect x="45" y="9" width="3" height="3" fill="#732B79" />
<rect x="48" y="9" width="3" height="3" fill="#732B79" />
<rect x="51" y="9" width="3" height="3" fill="#732B79" />
<rect x="54" y="9" width="3" height="3" fill="#3C3A41" />
<rect x="27" y="12" width="3" height="3" fill="#3C3A41" />
<rect x="30" y="12" width="3" height="3" fill="#8C4B93" />
<rect x="33" y="12" width="3" height="3" fill="#732B79" />
<rect x="36" y="12" width="3" height="3" fill="#333137" />
<rect x="39" y="12" width="3" height="3" fill="#333137" />
<rect x="42" y="12" width="3" height="3" fill="#333137" />
<rect x="45" y="12" width="3" height="3" fill="#333137" />
<rect x="48" y="12" width="3" height="3" fill="#5E2662" />
<rect x="51" y="12" width="3" height="3" fill="#732B79" />
<rect x="54" y="12" width="3" height="3" fill="#3C3A41" />
<rect x="24" y="15" width="3" height="3" fill="#3C3A41" />
<rect x="27" y="15" width="3" height="3" fill="#733E79" />
<rect x="30" y="15" width="3" height="3" fill="#732B79" />
<rect x="33" y="15" width="3" height="3" fill="#333137" />
<rect x="48" y="15" width="3" height="3" fill="#333137" />
<rect x="51" y="15" width="3" height="3" fill="#333137" />
<rect x="54" y="15" width="3" height="3" fill="#732B79" />
<rect x="57" y="15" width="3" height="3" fill="#3C3A41" />
<rect x="24" y="18" width="3" height="3" fill="#3C3A41" />
<rect x="27" y="18" width="3" height="3" fill="#733E79" />
<rect x="30" y="18" width="3" height="3" fill="#5E2662" />
<rect x="33" y="18" width="3" height="3" fill="#333137" />
<rect x="54" y="18" width="3" height="3" fill="#333137" />
<rect x="57" y="18" width="3" height="3" fill="#732B79" />
<rect x="60" y="18" width="3" height="3" fill="#3C3A41" />
<rect x="21" y="21" width="3" height="3" fill="#3C3A41" />
<rect x="24" y="21" width="3" height="3" fill="#733E79" />
<rect x="27" y="21" width="3" height="3" fill="#732B79" />
<rect x="30" y="21" width="3" height="3" fill="#333137" />
<rect x="54" y="21" width="3" height="3" fill="#333137" />
<rect x="57" y="21" width="3" height="3" fill="#5E2662" />
<rect x="60" y="21" width="3" height="3" fill="#732B79" />
<rect x="63" y="21" width="3" height="3" fill="#3C3A41" />
<rect x="21" y="24" width="3" height="3" fill="#3C3A41" />
<rect x="24" y="24" width="3" height="3" fill="#733E79" />
<rect x="27" y="24" width="3" height="3" fill="#333137" />
<rect x="57" y="24" width="3" height="3" fill="#333137" />
<rect x="60" y="24" width="3" height="3" fill="#732B79" />
<rect x="63" y="24" width="3" height="3" fill="#732B79" />
<rect x="66" y="24" width="3" height="3" fill="#333137" />
<rect x="21" y="27" width="3" height="3" fill="#3C3A41" />
<rect x="24" y="27" width="3" height="3" fill="#733E79" />
<rect x="27" y="27" width="3" height="3" fill="#333137" />
<rect x="45" y="27" width="3" height="3" fill="#3C3A41" />
<rect x="48" y="27" width="3" height="3" fill="#3C3A41" />
<rect x="60" y="27" width="3" height="3" fill="#333137" />
<rect x="63" y="27" width="3" height="3" fill="#333137" />
<rect x="21" y="30" width="3" height="3" fill="#3C3A41" />
<rect x="24" y="30" width="3" height="3" fill="#733E79" />
<rect x="27" y="30" width="3" height="3" fill="#2A292E" />
<rect x="42" y="30" width="3" height="3" fill="#3C3A41" />
<rect x="45" y="30" width="3" height="3" fill="#8C4B93" />
<rect x="48" y="30" width="3" height="3" fill="#8C4B93" />
<rect x="51" y="30" width="3" height="3" fill="#3C3A41" />
<rect x="54" y="30" width="3" height="3" fill="#333137" />
<rect x="57" y="30" width="3" height="3" fill="#333137" />
<rect x="21" y="33" width="3" height="3" fill="#3C3A41" />
<rect x="24" y="33" width="3" height="3" fill="#732B79" />
<rect x="27" y="33" width="3" height="3" fill="#5E2662" />
<rect x="30" y="33" width="3" height="3" fill="#2A292E" />
<rect x="39" y="33" width="3" height="3" fill="#3C3A41" />
<rect x="42" y="33" width="3" height="3" fill="#8C4B93" />
<rect x="45" y="33" width="3" height="3" fill="#732B79" />
<rect x="48" y="33" width="3" height="3" fill="#732B79" />
<rect x="51" y="33" width="3" height="3" fill="#732B79" />
<rect x="54" y="33" width="3" height="3" fill="#732B79" />
<rect x="57" y="33" width="3" height="3" fill="#732B79" />
<rect x="60" y="33" width="3" height="3" fill="#333137" />
<rect x="63" y="33" width="3" height="3" fill="#333137" />
<rect x="21" y="36" width="3" height="3" fill="#3C3A41" />
<rect x="24" y="36" width="3" height="3" fill="#732B79" />
<rect x="27" y="36" width="3" height="3" fill="#5E2662" />
<rect x="30" y="36" width="3" height="3" fill="#2A292E" />
<rect x="36" y="36" width="3" height="3" fill="#3C3A41" />
<rect x="39" y="36" width="3" height="3" fill="#8C4B93" />
<rect x="42" y="36" width="3" height="3" fill="#732B79" />
<rect x="45" y="36" width="3" height="3" fill="#5E2662" />
<rect x="48" y="36" width="3" height="3" fill="#5E2662" />
<rect x="51" y="36" width="3" height="3" fill="#732B79" />
<rect x="54" y="36" width="3" height="3" fill="#5E2662" />
<rect x="57" y="36" width="3" height="3" fill="#5E2662" />
<rect x="60" y="36" width="3" height="3" fill="#5E2662" />
<rect x="63" y="36" width="3" height="3" fill="#732B79" />
<rect x="66" y="36" width="3" height="3" fill="#333137" />
<rect x="69" y="36" width="3" height="3" fill="#333137" />
<rect x="72" y="36" width="3" height="3" fill="#333137" />
<rect x="21" y="39" width="3" height="3" fill="#3C3A41" />
<rect x="24" y="39" width="3" height="3" fill="#732B79" />
<rect x="27" y="39" width="3" height="3" fill="#5E2662" />
<rect x="30" y="39" width="3" height="3" fill="#2A292E" />
<rect x="36" y="39" width="3" height="3" fill="#3C3A41" />
<rect x="39" y="39" width="3" height="3" fill="#732B79" />
<rect x="42" y="39" width="3" height="3" fill="#5E2662" />
<rect x="45" y="39" width="3" height="3" fill="#5E2662" />
<rect x="48" y="39" width="3" height="3" fill="#5E2662" />
<rect x="51" y="39" width="3" height="3" fill="#5E2662" />
<rect x="54" y="39" width="3" height="3" fill="#333137" />
<rect x="57" y="39" width="3" height="3" fill="#333137" />
<rect x="60" y="39" width="3" height="3" fill="#333137" />
<rect x="63" y="39" width="3" height="3" fill="#5E2662" />
<rect x="66" y="39" width="3" height="3" fill="#5E2662" />
<rect x="69" y="39" width="3" height="3" fill="#5E2662" />
<rect x="72" y="39" width="3" height="3" fill="#732B79" />
<rect x="75" y="39" width="3" height="3" fill="#333137" />
<rect x="12" y="42" width="3" height="3" fill="#3C3A41" />
<rect x="21" y="42" width="3" height="3" fill="#3C3A41" />
<rect x="24" y="42" width="3" height="3" fill="#732B79" />
<rect x="27" y="42" width="3" height="3" fill="#5E2662" />
<rect x="30" y="42" width="3" height="3" fill="#2A292E" />
<rect x="39" y="42" width="3" height="3" fill="#3C3A41" />
<rect x="42" y="42" width="3" height="3" fill="#732B79" />
<rect x="45" y="42" width="3" height="3" fill="#5E2662" />
<rect x="48" y="42" width="3" height="3" fill="#5E2662" />
<rect x="51" y="42" width="3" height="3" fill="#451C48" />
<rect x="63" y="42" width="3" height="3" fill="#333137" />
<rect x="66" y="42" width="3" height="3" fill="#333137" />
<rect x="69" y="42" width="3" height="3" fill="#5E2662" />
<rect x="72" y="42" width="3" height="3" fill="#5E2662" />
<rect x="75" y="42" width="3" height="3" fill="#732B79" />
<rect x="78" y="42" width="3" height="3" fill="#333137" />
<rect x="9" y="45" width="3" height="3" fill="#3C3A41" />
<rect x="12" y="45" width="3" height="3" fill="#8C4B93" />
<rect x="15" y="45" width="3" height="3" fill="#3C3A41" />
<rect x="21" y="45" width="3" height="3" fill="#3C3A41" />
<rect x="24" y="45" width="3" height="3" fill="#732B79" />
<rect x="27" y="45" width="3" height="3" fill="#5E2662" />
<rect x="30" y="45" width="3" height="3" fill="#2A292E" />
<rect x="42" y="45" width="3" height="3" fill="#3C3A41" />
<rect x="45" y="45" width="3" height="3" fill="#732B79" />
<rect x="48" y="45" width="3" height="3" fill="#451C48" />
<rect x="51" y="45" width="3" height="3" fill="#333137" />
<rect x="69" y="45" width="3" height="3" fill="#333137" />
<rect x="72" y="45" width="3" height="3" fill="#5E2662" />
<rect x="75" y="45" width="3" height="3" fill="#5E2662" />
<rect x="78" y="45" width="3" height="3" fill="#732B79" />
<rect x="81" y="45" width="3" height="3" fill="#333137" />
<rect x="9" y="48" width="3" height="3" fill="#3C3A41" />
<rect x="12" y="48" width="3" height="3" fill="#8C4B93" />
<rect x="15" y="48" width="3" height="3" fill="#333137" />
<rect x="21" y="48" width="3" height="3" fill="#3C3A41" />
<rect x="24" y="48" width="3" height="3" fill="#732B79" />
<rect x="27" y="48" width="3" height="3" fill="#5E2662" />
<rect x="30" y="48" width="3" height="3" fill="#2A292E" />
<rect x="45" y="48" width="3" height="3" fill="#3C3A41" />
<rect x="48" y="48" width="3" height="3" fill="#3C3A41" />
<rect x="60" y="48" width="3" height="3" fill="#333137" />
<rect x="63" y="48" width="3" height="3" fill="#333137" />
<rect x="66" y="48" width="3" height="3" fill="#333137" />
<rect x="72" y="48" width="3" height="3" fill="#333137" />
<rect x="75" y="48" width="3" height="3" fill="#333137" />
<rect x="78" y="48" width="3" height="3" fill="#5E2662" />
<rect x="81" y="48" width="3" height="3" fill="#5E2662" />
<rect x="84" y="48" width="3" height="3" fill="#333137" />
<rect x="6" y="51" width="3" height="3" fill="#3C3A41" />
<rect x="9" y="51" width="3" height="3" fill="#8C4B93" />
<rect x="12" y="51" width="3" height="3" fill="#5E2662" />
<rect x="15" y="51" width="3" height="3" fill="#333137" />
<rect x="21" y="51" width="3" height="3" fill="#3C3A41" />
<rect x="24" y="51" width="3" height="3" fill="#732B79" />
<rect x="27" y="51" width="3" height="3" fill="#5E2662" />
<rect x="30" y="51" width="3" height="3" fill="#2A292E" />
<rect x="33" y="51" width="3" height="3" fill="#2A292E" />
<rect x="57" y="51" width="3" height="3" fill="#333137" />
<rect x="60" y="51" width="3" height="3" fill="#732B79" />
<rect x="63" y="51" width="3" height="3" fill="#732B79" />
<rect x="66" y="51" width="3" height="3" fill="#5E2662" />
<rect x="69" y="51" width="3" height="3" fill="#333137" />
<rect x="78" y="51" width="3" height="3" fill="#333137" />
<rect x="81" y="51" width="3" height="3" fill="#5E2662" />
<rect x="84" y="51" width="3" height="3" fill="#441947" />
<rect x="87" y="51" width="3" height="3" fill="#333137" />
<rect x="6" y="54" width="3" height="3" fill="#3C3A41" />
<rect x="9" y="54" width="3" height="3" fill="#733E79" />
<rect x="12" y="54" width="3" height="3" fill="#333137" />
<rect x="24" y="54" width="3" height="3" fill="#3C3A41" />
<rect x="27" y="54" width="3" height="3" fill="#732B79" />
<rect x="30" y="54" width="3" height="3" fill="#5E2662" />
<rect x="33" y="54" width="3" height="3" fill="#612566" />
<rect x="36" y="54" width="3" height="3" fill="#2A292E" />
<rect x="54" y="54" width="3" height="3" fill="#333137" />
<rect x="57" y="54" width="3" height="3" fill="#732B79" />
<rect x="60" y="54" width="3" height="3" fill="#732B79" />
<rect x="63" y="54" width="3" height="3" fill="#5E2662" />
<rect x="66" y="54" width="3" height="3" fill="#5E2662" />
<rect x="69" y="54" width="3" height="3" fill="#5E2662" />
<rect x="72" y="54" width="3" height="3" fill="#333137" />
<rect x="81" y="54" width="3" height="3" fill="#333137" />
<rect x="84" y="54" width="3" height="3" fill="#441947" />
<rect x="87" y="54" width="3" height="3" fill="#441947" />
<rect x="90" y="54" width="3" height="3" fill="#333137" />
<rect x="6" y="57" width="3" height="3" fill="#3C3A41" />
<rect x="9" y="57" width="3" height="3" fill="#733E79" />
<rect x="12" y="57" width="3" height="3" fill="#333137" />
<rect x="21" y="57" width="3" height="3" fill="#3C3A41" />
<rect x="24" y="57" width="3" height="3" fill="#732B79" />
<rect x="27" y="57" width="3" height="3" fill="#732B79" />
<rect x="30" y="57" width="3" height="3" fill="#5E2662" />
<rect x="33" y="57" width="3" height="3" fill="#612566" />
<rect x="36" y="57" width="3" height="3" fill="#441947" />
<rect x="39" y="57" width="3" height="3" fill="#2A292E" />
<rect x="54" y="57" width="3" height="3" fill="#333137" />
<rect x="57" y="57" width="3" height="3" fill="#732B79" />
<rect x="60" y="57" width="3" height="3" fill="#732B79" />
<rect x="63" y="57" width="3" height="3" fill="#5E2662" />
<rect x="66" y="57" width="3" height="3" fill="#5E2662" />
<rect x="69" y="57" width="3" height="3" fill="#5E2662" />
<rect x="72" y="57" width="3" height="3" fill="#333137" />
<rect x="81" y="57" width="3" height="3" fill="#333137" />
<rect x="84" y="57" width="3" height="3" fill="#5E2662" />
<rect x="87" y="57" width="3" height="3" fill="#441947" />
<rect x="90" y="57" width="3" height="3" fill="#2A292E" />
<rect x="6" y="60" width="3" height="3" fill="#3C3A41" />
<rect x="9" y="60" width="3" height="3" fill="#5E2662" />
<rect x="12" y="60" width="3" height="3" fill="#333137" />
<rect x="21" y="60" width="3" height="3" fill="#3C3A41" />
<rect x="24" y="60" width="3" height="3" fill="#732B79" />
<rect x="27" y="60" width="3" height="3" fill="#732B79" />
<rect x="30" y="60" width="3" height="3" fill="#5E2662" />
<rect x="33" y="60" width="3" height="3" fill="#612566" />
<rect x="36" y="60" width="3" height="3" fill="#441947" />
<rect x="39" y="60" width="3" height="3" fill="#2A292E" />
<rect x="54" y="60" width="3" height="3" fill="#333137" />
<rect x="57" y="60" width="3" height="3" fill="#732B79" />
<rect x="60" y="60" width="3" height="3" fill="#5E2662" />
<rect x="63" y="60" width="3" height="3" fill="#5E2662" />
<rect x="66" y="60" width="3" height="3" fill="#441947" />
<rect x="69" y="60" width="3" height="3" fill="#441947" />
<rect x="72" y="60" width="3" height="3" fill="#333137" />
<rect x="84" y="60" width="3" height="3" fill="#333137" />
<rect x="87" y="60" width="3" height="3" fill="#441947" />
<rect x="90" y="60" width="3" height="3" fill="#2A292E" />
<rect x="3" y="63" width="3" height="3" fill="#3C3A41" />
<rect x="6" y="63" width="3" height="3" fill="#732B79" />
<rect x="9" y="63" width="3" height="3" fill="#5E2662" />
<rect x="12" y="63" width="3" height="3" fill="#333137" />
<rect x="21" y="63" width="3" height="3" fill="#3C3A41" />
<rect x="24" y="63" width="3" height="3" fill="#732B79" />
<rect x="27" y="63" width="3" height="3" fill="#5E2662" />
<rect x="30" y="63" width="3" height="3" fill="#612566" />
<rect x="33" y="63" width="3" height="3" fill="#441947" />
<rect x="36" y="63" width="3" height="3" fill="#441947" />
<rect x="39" y="63" width="3" height="3" fill="#2A292E" />
<rect x="48" y="63" width="3" height="3" fill="#333137" />
<rect x="51" y="63" width="3" height="3" fill="#333137" />
<rect x="54" y="63" width="3" height="3" fill="#732B79" />
<rect x="57" y="63" width="3" height="3" fill="#732B79" />
<rect x="60" y="63" width="3" height="3" fill="#5E2662" />
<rect x="63" y="63" width="3" height="3" fill="#441947" />
<rect x="66" y="63" width="3" height="3" fill="#441947" />
<rect x="69" y="63" width="3" height="3" fill="#2A292E" />
<rect x="84" y="63" width="3" height="3" fill="#333137" />
<rect x="87" y="63" width="3" height="3" fill="#441947" />
<rect x="90" y="63" width="3" height="3" fill="#2A292E" />
<rect x="3" y="66" width="3" height="3" fill="#3C3A41" />
<rect x="6" y="66" width="3" height="3" fill="#732B79" />
<rect x="9" y="66" width="3" height="3" fill="#5E2662" />
<rect x="12" y="66" width="3" height="3" fill="#333137" />
<rect x="24" y="66" width="3" height="3" fill="#2A292E" />
<rect x="27" y="66" width="3" height="3" fill="#5E2662" />
<rect x="30" y="66" width="3" height="3" fill="#441947" />
<rect x="33" y="66" width="3" height="3" fill="#441947" />
<rect x="36" y="66" width="3" height="3" fill="#2A292E" />
<rect x="45" y="66" width="3" height="3" fill="#333137" />
<rect x="48" y="66" width="3" height="3" fill="#732B79" />
<rect x="51" y="66" width="3" height="3" fill="#5E2662" />
<rect x="54" y="66" width="3" height="3" fill="#441947" />
<rect x="57" y="66" width="3" height="3" fill="#2A292E" />
<rect x="60" y="66" width="3" height="3" fill="#2A292E" />
<rect x="63" y="66" width="3" height="3" fill="#2A292E" />
<rect x="66" y="66" width="3" height="3" fill="#2A292E" />
<rect x="84" y="66" width="3" height="3" fill="#333137" />
<rect x="87" y="66" width="3" height="3" fill="#441947" />
<rect x="90" y="66" width="3" height="3" fill="#2A292E" />
<rect x="3" y="69" width="3" height="3" fill="#3C3A41" />
<rect x="6" y="69" width="3" height="3" fill="#732B79" />
<rect x="9" y="69" width="3" height="3" fill="#5E2662" />
<rect x="12" y="69" width="3" height="3" fill="#333137" />
<rect x="27" y="69" width="3" height="3" fill="#2A292E" />
<rect x="30" y="69" width="3" height="3" fill="#2A292E" />
<rect x="33" y="69" width="3" height="3" fill="#2A292E" />
<rect x="39" y="69" width="3" height="3" fill="#333137" />
<rect x="42" y="69" width="3" height="3" fill="#333137" />
<rect x="45" y="69" width="3" height="3" fill="#732B79" />
<rect x="48" y="69" width="3" height="3" fill="#5E2662" />
<rect x="51" y="69" width="3" height="3" fill="#441947" />
<rect x="54" y="69" width="3" height="3" fill="#2A292E" />
<rect x="81" y="69" width="3" height="3" fill="#333137" />
<rect x="84" y="69" width="3" height="3" fill="#5E2662" />
<rect x="87" y="69" width="3" height="3" fill="#441947" />
<rect x="90" y="69" width="3" height="3" fill="#2A292E" />
<rect x="3" y="72" width="3" height="3" fill="#3C3A41" />
<rect x="6" y="72" width="3" height="3" fill="#732B79" />
<rect x="9" y="72" width="3" height="3" fill="#5E2662" />
<rect x="12" y="72" width="3" height="3" fill="#333137" />
<rect x="36" y="72" width="3" height="3" fill="#333137" />
<rect x="39" y="72" width="3" height="3" fill="#732B79" />
<rect x="42" y="72" width="3" height="3" fill="#732B79" />
<rect x="45" y="72" width="3" height="3" fill="#5E2662" />
<rect x="48" y="72" width="3" height="3" fill="#441947" />
<rect x="51" y="72" width="3" height="3" fill="#2A292E" />
<rect x="81" y="72" width="3" height="3" fill="#333137" />
<rect x="84" y="72" width="3" height="3" fill="#5E2662" />
<rect x="87" y="72" width="3" height="3" fill="#441947" />
<rect x="90" y="72" width="3" height="3" fill="#2A292E" />
<rect x="6" y="75" width="3" height="3" fill="#3C3A41" />
<rect x="9" y="75" width="3" height="3" fill="#3C3A41" />
<rect x="12" y="75" width="3" height="3" fill="#5E2662" />
<rect x="15" y="75" width="3" height="3" fill="#333137" />
<rect x="18" y="75" width="3" height="3" fill="#333137" />
<rect x="21" y="75" width="3" height="3" fill="#333137" />
<rect x="24" y="75" width="3" height="3" fill="#333137" />
<rect x="27" y="75" width="3" height="3" fill="#333137" />
<rect x="30" y="75" width="3" height="3" fill="#333137" />
<rect x="33" y="75" width="3" height="3" fill="#333137" />
<rect x="36" y="75" width="3" height="3" fill="#5E2662" />
<rect x="39" y="75" width="3" height="3" fill="#5E2662" />
<rect x="42" y="75" width="3" height="3" fill="#441947" />
<rect x="45" y="75" width="3" height="3" fill="#441947" />
<rect x="48" y="75" width="3" height="3" fill="#2A292E" />
<rect x="60" y="75" width="3" height="3" fill="#333137" />
<rect x="63" y="75" width="3" height="3" fill="#333137" />
<rect x="66" y="75" width="3" height="3" fill="#333137" />
<rect x="69" y="75" width="3" height="3" fill="#333137" />
<rect x="72" y="75" width="3" height="3" fill="#333137" />
<rect x="75" y="75" width="3" height="3" fill="#333137" />
<rect x="78" y="75" width="3" height="3" fill="#333137" />
<rect x="81" y="75" width="3" height="3" fill="#5E2662" />
<rect x="84" y="75" width="3" height="3" fill="#441947" />
<rect x="87" y="75" width="3" height="3" fill="#441947" />
<rect x="90" y="75" width="3" height="3" fill="#2A292E" />
<rect x="12" y="78" width="3" height="3" fill="#3C3A41" />
<rect x="15" y="78" width="3" height="3" fill="#5E2662" />
<rect x="18" y="78" width="3" height="3" fill="#5E2662" />
<rect x="21" y="78" width="3" height="3" fill="#5E2662" />
<rect x="24" y="78" width="3" height="3" fill="#5E2662" />
<rect x="27" y="78" width="3" height="3" fill="#5E2662" />
<rect x="30" y="78" width="3" height="3" fill="#5E2662" />
<rect x="33" y="78" width="3" height="3" fill="#5E2662" />
<rect x="36" y="78" width="3" height="3" fill="#2A292E" />
<rect x="39" y="78" width="3" height="3" fill="#2A292E" />
<rect x="42" y="78" width="3" height="3" fill="#2A292E" />
<rect x="45" y="78" width="3" height="3" fill="#2A292E" />
<rect x="57" y="78" width="3" height="3" fill="#333137" />
<rect x="60" y="78" width="3" height="3" fill="#5E2662" />
<rect x="63" y="78" width="3" height="3" fill="#5E2662" />
<rect x="66" y="78" width="3" height="3" fill="#5E2662" />
<rect x="69" y="78" width="3" height="3" fill="#5E2662" />
<rect x="72" y="78" width="3" height="3" fill="#5E2662" />
<rect x="75" y="78" width="3" height="3" fill="#5E2662" />
<rect x="78" y="78" width="3" height="3" fill="#5E2662" />
<rect x="81" y="78" width="3" height="3" fill="#441947" />
<rect x="84" y="78" width="3" height="3" fill="#2A292E" />
<rect x="87" y="78" width="3" height="3" fill="#2A292E" />
<rect x="15" y="81" width="3" height="3" fill="#2A292E" />
<rect x="18" y="81" width="3" height="3" fill="#2A292E" />
<rect x="21" y="81" width="3" height="3" fill="#441947" />
<rect x="24" y="81" width="3" height="3" fill="#441947" />
<rect x="27" y="81" width="3" height="3" fill="#441947" />
<rect x="30" y="81" width="3" height="3" fill="#2A292E" />
<rect x="33" y="81" width="3" height="3" fill="#2A292E" />
<rect x="54" y="81" width="3" height="3" fill="#333137" />
<rect x="57" y="81" width="3" height="3" fill="#2A292E" />
<rect x="60" y="81" width="3" height="3" fill="#2A292E" />
<rect x="63" y="81" width="3" height="3" fill="#2A292E" />
<rect x="66" y="81" width="3" height="3" fill="#2A292E" />
<rect x="69" y="81" width="3" height="3" fill="#2A292E" />
<rect x="72" y="81" width="3" height="3" fill="#2A292E" />
<rect x="75" y="81" width="3" height="3" fill="#2A292E" />
<rect x="78" y="81" width="3" height="3" fill="#2A292E" />
<rect x="81" y="81" width="3" height="3" fill="#2A292E" />
<rect x="21" y="84" width="3" height="3" fill="#2A292E" />
<rect x="24" y="84" width="3" height="3" fill="#2A292E" />
<rect x="27" y="84" width="3" height="3" fill="#2A292E" />
</svg>